<svg width="1920" height="700" viewBox="0 0 1920 700" fill="none" xmlns="http://www.w3.org/2000/svg">
<mask id="mask0" mask-type="alpha" maskUnits="userSpaceOnUse" x="0" y="0" width="1920" height="700">
<path d="M0 0H1920V700H596H563H528H0V0Z" fill="#343434"/>
</mask>
<g mask="url(#mask0)">
<rect width="1920" height="760" fill="url(#paint0_linear)"/>
</g>
<path d="M1413.78 593.914C1497.33 593.914 1559.88 503.588 1542.24 407.813C1541.99 406.509 1541.74 405.234 1541.5 403.93C1526.17 325.195 1461.15 276.685 1375.59 289.899C1296.39 302.128 1297.7 253.038 1228.4 206.151C1080.14 105.914 865.703 148.484 917.009 373.966C925.535 411.407 919.011 436.183 908.829 457.019C879.049 517.99 916.935 593.914 976.84 593.914H1413.78Z" fill="url(#paint1_linear)" fill-opacity="0.4"/>
<g opacity="0.19">
<path d="M1001.37 363.471C1001.2 364.538 1000.38 365.277 999.316 365.524C995.375 366.345 990.532 367.001 984.95 367.001C979.286 367.001 974.36 366.345 970.42 365.441C969.435 365.195 968.614 364.456 968.368 363.471C968.039 362.24 967.875 360.762 967.875 359.038C967.875 357.724 968.121 356.657 968.368 355.671C968.614 354.686 969.435 353.865 970.42 353.701C974.442 352.962 979.45 352.305 985.032 352.305C990.45 352.305 995.211 352.88 999.152 353.701C1000.22 353.865 1001.04 354.768 1001.29 355.836C1001.53 356.903 1001.61 358.217 1001.61 359.694C1001.78 361.09 1001.61 362.404 1001.37 363.471Z" fill="#9B8EE0"/>
<path d="M1038.06 363.471C1037.9 364.538 1037.08 365.277 1036.01 365.524C1032.07 366.345 1027.23 367.001 1021.64 367.001C1015.98 367.001 1011.05 366.345 1007.11 365.441C1006.13 365.195 1005.31 364.456 1005.06 363.471C1004.73 362.24 1004.57 360.762 1004.57 359.038C1004.57 357.724 1004.82 356.657 1005.06 355.671C1005.31 354.686 1006.13 353.865 1007.11 353.701C1011.14 352.962 1016.14 352.305 1021.73 352.305C1027.14 352.305 1031.91 352.88 1035.85 353.701C1036.91 353.865 1037.73 354.768 1037.98 355.836C1038.23 356.903 1038.31 358.217 1038.31 359.694C1038.47 361.09 1038.31 362.404 1038.06 363.471Z" fill="#9B8EE0"/>
<path d="M1019.76 347.625C1019.59 348.693 1018.77 349.432 1017.7 349.678C1013.76 350.499 1008.92 351.156 1003.34 351.156C997.675 351.156 992.749 350.499 988.809 349.596C987.824 349.349 987.003 348.611 986.757 347.625C986.428 346.394 986.264 344.916 986.264 343.192C986.264 341.878 986.51 340.811 986.757 339.826C987.003 338.84 987.824 338.019 988.809 337.855C992.831 337.116 997.839 336.459 1003.42 336.459C1008.84 336.459 1013.6 337.034 1017.54 337.855C1018.61 338.019 1019.43 338.923 1019.67 339.99C1019.92 341.057 1020 342.371 1020 343.849C1020.09 345.326 1019.92 346.558 1019.76 347.625Z" fill="#B7AEE3"/>
<path d="M1055.82 288.922C1055.66 289.99 1054.84 290.729 1053.77 290.975C1049.83 291.796 1044.99 292.453 1039.41 292.453C1033.74 292.453 1028.82 291.796 1024.88 290.893C1023.89 290.647 1023.07 289.908 1022.82 288.922C1022.49 287.691 1022.33 286.213 1022.33 284.489C1022.33 283.175 1022.58 282.108 1022.82 281.123C1023.07 280.137 1023.89 279.316 1024.88 279.152C1028.98 278.413 1033.9 277.839 1039.57 277.839C1044.99 277.839 1049.75 278.413 1053.69 279.234C1054.76 279.399 1055.58 280.302 1055.82 281.369C1056.07 282.436 1056.15 283.75 1056.15 285.228C1056.15 286.624 1055.99 287.855 1055.82 288.922Z" fill="#9B8EE0"/>
<path d="M1094.57 332.929C1094.41 333.996 1093.58 334.735 1092.52 334.982C1088.58 335.803 1083.73 336.459 1078.15 336.459C1072.49 336.459 1067.56 335.803 1063.62 334.9C1062.64 334.653 1061.82 333.914 1061.57 332.929C1061.24 331.698 1061.08 330.22 1061.08 328.496C1061.08 327.182 1061.32 326.115 1061.57 325.129C1061.82 324.144 1062.64 323.323 1063.62 323.159C1067.64 322.42 1072.65 321.763 1078.23 321.763C1083.65 321.763 1088.41 322.338 1092.35 323.159C1093.42 323.323 1094.24 324.226 1094.49 325.294C1094.73 326.361 1094.82 327.675 1094.82 329.152C1094.98 330.63 1094.82 331.862 1094.57 332.929Z" fill="#B7AEE3"/>
</g>
<g opacity="0.19">
<path d="M1459.2 389.815C1459.36 390.882 1460.18 391.621 1461.25 391.867C1465.19 392.688 1470.03 393.345 1475.61 393.345C1481.28 393.345 1486.2 392.688 1490.14 391.785C1491.13 391.539 1491.95 390.8 1492.2 389.815C1492.52 388.583 1492.69 387.105 1492.69 385.381C1492.69 384.068 1492.44 383 1492.2 382.015C1491.95 381.03 1491.13 380.209 1490.14 380.045C1486.12 379.306 1481.11 378.649 1475.53 378.649C1470.11 378.649 1465.35 379.224 1461.41 380.045C1460.34 380.209 1459.52 381.112 1459.28 382.179C1459.03 383.247 1458.95 384.56 1458.95 386.038C1458.79 387.434 1458.95 388.747 1459.2 389.815Z" fill="#9B8EE0"/>
<path d="M1422.5 389.815C1422.67 390.882 1423.49 391.621 1424.55 391.867C1428.49 392.688 1433.34 393.345 1438.92 393.345C1444.58 393.345 1449.51 392.688 1453.45 391.785C1454.43 391.539 1455.26 390.8 1455.5 389.815C1455.83 388.583 1455.99 387.105 1455.99 385.381C1455.99 384.068 1455.75 383 1455.5 382.015C1455.26 381.03 1454.43 380.209 1453.45 380.045C1449.43 379.306 1444.42 378.649 1438.84 378.649C1433.42 378.649 1428.66 379.224 1424.72 380.045C1423.65 380.209 1422.83 381.112 1422.58 382.179C1422.34 383.247 1422.26 384.56 1422.26 386.038C1422.09 387.434 1422.26 388.747 1422.5 389.815Z" fill="#9B8EE0"/>
<path d="M1440.81 373.969C1440.97 375.036 1441.79 375.775 1442.86 376.022C1446.8 376.843 1451.64 377.499 1457.22 377.499C1462.89 377.499 1467.81 376.843 1471.75 375.94C1472.74 375.693 1473.56 374.954 1473.81 373.969C1474.14 372.738 1474.3 371.26 1474.3 369.536C1474.3 368.222 1474.05 367.155 1473.81 366.169C1473.56 365.184 1472.74 364.363 1471.75 364.199C1467.73 363.46 1462.72 362.803 1457.14 362.803C1451.72 362.803 1446.96 363.378 1443.02 364.199C1441.96 364.363 1441.13 365.266 1440.89 366.334C1440.64 367.401 1440.56 368.715 1440.56 370.192C1440.48 371.67 1440.64 372.902 1440.81 373.969Z" fill="#B7AEE3"/>
<path d="M1404.74 315.266C1404.9 316.333 1405.73 317.072 1406.79 317.319C1410.73 318.14 1415.58 318.796 1421.16 318.796C1426.82 318.796 1431.75 318.14 1435.69 317.237C1436.67 316.99 1437.49 316.251 1437.74 315.266C1438.07 314.035 1438.23 312.557 1438.23 310.833C1438.23 309.519 1437.99 308.452 1437.74 307.466C1437.49 306.481 1436.67 305.66 1435.69 305.496C1431.58 304.757 1426.66 304.182 1420.99 304.182C1415.58 304.182 1410.82 304.757 1406.87 305.578C1405.81 305.742 1404.99 306.645 1404.74 307.713C1404.49 308.78 1404.41 310.094 1404.41 311.572C1404.41 312.967 1404.58 314.199 1404.74 315.266Z" fill="#9B8EE0"/>
<path d="M1365.99 359.273C1366.16 360.34 1366.98 361.079 1368.05 361.325C1371.99 362.146 1376.83 362.803 1382.41 362.803C1388.08 362.803 1393 362.146 1396.94 361.243C1397.93 360.997 1398.75 360.258 1398.99 359.273C1399.32 358.041 1399.49 356.563 1399.49 354.839C1399.49 353.526 1399.24 352.458 1398.99 351.473C1398.75 350.488 1397.93 349.667 1396.94 349.503C1392.92 348.764 1387.91 348.107 1382.33 348.107C1376.91 348.107 1372.15 348.682 1368.21 349.503C1367.14 349.667 1366.32 350.57 1366.08 351.637C1365.83 352.705 1365.75 354.018 1365.75 355.496C1365.58 356.974 1365.75 358.205 1365.99 359.273Z" fill="#B7AEE3"/>
</g>
<path d="M1435.86 410.034V413.231C1435.86 414.354 1436.23 415.276 1436.66 415.276H1553.67C1554.11 415.276 1554.48 414.354 1554.48 413.231V410.034C1554.48 408.911 1554.11 407.99 1553.67 407.99H1436.66C1436.23 407.99 1435.86 408.911 1435.86 410.034Z" fill="#9B8EE0"/>
<path d="M1435.86 410.034V413.231C1435.86 414.354 1436.2 415.276 1436.61 415.276H1529.51C1529.91 415.276 1530.25 414.354 1530.25 413.231V410.034C1530.25 408.911 1529.91 407.99 1529.51 407.99H1436.61C1436.2 407.99 1435.86 408.911 1435.86 410.034Z" fill="#AEA1F0"/>
<path d="M1465.48 536.326H1548.56V415.26H1465.48V536.326Z" fill="#6B52CA"/>
<path d="M1442.19 536.326H1525.27V415.26H1442.19V536.326Z" fill="#806ECC"/>
<path d="M1446.66 418.703H1520.81V529.661H1446.66V418.703ZM1520 419.48H1447.47V528.826H1520V419.48Z" fill="#9B8EE0"/>
<path d="M1520.4 455.391H1447.06V456.198H1520.4V455.391Z" fill="#9B8EE0"/>
<path d="M1520.4 492.829H1447.06V493.635H1520.4V492.829Z" fill="#9B8EE0"/>
<path d="M1476.21 425.845H1489.81C1490.47 425.845 1491.02 425.297 1491.02 424.635C1491.02 423.973 1490.47 423.426 1489.81 423.426H1476.21C1475.55 423.426 1475 423.973 1475 424.635C1475 425.297 1475.55 425.845 1476.21 425.845Z" fill="#9B8EE0"/>
<path d="M1476.21 462.447H1489.81C1490.47 462.447 1491.02 461.9 1491.02 461.237C1491.02 460.575 1490.47 460.028 1489.81 460.028H1476.21C1475.55 460.028 1475 460.575 1475 461.237C1475 461.9 1475.55 462.447 1476.21 462.447Z" fill="#9B8EE0"/>
<path d="M1476.21 500.575H1489.81C1490.47 500.575 1491.02 500.028 1491.02 499.366C1491.02 498.703 1490.47 498.156 1489.81 498.156H1476.21C1475.55 498.156 1475 498.703 1475 499.366C1475 500.057 1475.55 500.575 1476.21 500.575Z" fill="#9B8EE0"/>
<path d="M938.836 469.151C938.836 469.151 949.682 456.554 939.506 448.545C939.506 448.545 932.089 444.068 926.039 444.429C926.039 444.429 934.626 458.778 931.838 460.197C929.05 461.615 923.446 443.511 923.446 443.511C923.446 443.511 906.55 441.871 901.113 444.485C901.113 444.485 915.556 456.276 912.517 456.971C909.478 457.666 893.864 446.098 893.864 446.098C893.864 446.098 878.14 448.767 878.976 458.334C879.812 467.9 885.221 470.847 887.619 470.597C889.989 470.347 903.929 465.035 904.236 466.982C904.543 468.929 896.151 475.297 890.268 475.575C890.268 475.575 901.364 487.783 908.725 484.251C916.086 480.72 916.727 475.158 921.327 473.072C925.927 470.986 929.831 470.986 927.935 473.128C926.039 475.269 917.73 477.327 915.11 481.971C912.489 486.615 910.119 489.73 917.758 488.589C925.37 487.449 937.777 481.887 938.307 475.519C938.836 469.151 938.836 469.151 938.836 469.151Z" fill="#6B52CA"/>
<path d="M886.699 458.612C886.699 458.612 929.413 456.971 938.836 469.151C938.836 469.151 940.928 475.38 947.34 481.053L948.344 483.779C948.344 483.779 940.955 475.992 938.307 475.519C938.307 475.519 942.433 460.447 886.699 458.612Z" fill="#6B52CA"/>
<path d="M947.34 481.053C947.34 481.053 956.513 487.811 957.154 499.908L955.481 500.047C955.481 500.047 952.554 487.561 947.256 482.666C941.987 477.8 947.34 481.053 947.34 481.053Z" fill="#6B52CA"/>
<path d="M976.726 453.3C976.726 453.3 959.496 443.678 967.526 430.608C967.526 430.608 973.966 422.599 980.853 420.514C980.853 420.514 977.172 440.008 980.853 440.453C984.533 440.897 983.39 418.456 983.39 418.456C983.39 418.456 1001.54 409.752 1008.68 410.447C1008.68 410.447 997.414 429.468 1001.09 429.023C1004.77 428.578 1017.4 409.307 1017.4 409.307C1017.4 409.307 1036.03 405.859 1039.01 416.871C1042 427.883 1037.17 433.361 1034.41 434.057C1031.65 434.752 1013.98 434.501 1014.42 436.81C1014.87 439.09 1026.83 442.761 1033.49 440.703C1033.49 440.703 1026.13 458.806 1016.48 457.889C1006.84 456.971 1003.85 451.02 997.86 450.547C991.894 450.102 987.516 451.687 990.5 453.3C993.483 454.913 1003.6 453.828 1008.43 457.916C1013.25 462.004 1017.15 464.535 1008.2 466.37C999.254 468.206 983.167 467.065 979.933 460.169C976.726 453.3 976.726 453.3 976.726 453.3Z" fill="#6B52CA"/>
<path d="M1030.48 420.319C1030.48 420.319 982.218 435.892 976.726 453.328C976.726 453.328 976.949 461.114 972.126 470.069V473.517C972.126 473.517 977.172 461.837 979.932 460.225C979.932 460.169 969.142 445.069 1030.48 420.319Z" fill="#6B52CA"/>
<path d="M972.125 470.041C972.125 470.041 964.681 481.304 968.919 495.041L970.843 494.541C970.843 494.541 968.975 479.44 972.878 471.821C976.781 464.201 972.125 470.041 972.125 470.041Z" fill="#6B52CA"/>
<path d="M949.321 440.037C949.321 440.037 972.044 427.356 961.449 410.143C961.449 410.143 952.973 399.576 943.884 396.85C943.884 396.85 948.735 422.518 943.884 423.129C939.033 423.741 940.538 394.125 940.538 394.125C940.538 394.125 916.617 382.64 907.221 383.558C907.221 383.558 922.053 408.641 917.202 408.029C912.351 407.418 895.706 382.056 895.706 382.056C895.706 382.056 871.171 377.495 867.24 392.012C863.308 406.5 869.665 413.758 873.29 414.676C876.914 415.593 900.251 415.287 899.637 418.291C899.024 421.322 883.271 426.133 874.489 423.435C874.489 423.435 884.191 447.295 896.905 446.099C909.619 444.904 913.55 437.034 921.44 436.422C929.302 435.81 935.074 437.924 931.143 440.037C927.211 442.151 913.884 440.732 907.527 446.127C901.171 451.522 896.013 454.831 907.834 457.251C919.656 459.67 940.845 458.168 945.083 449.103C949.321 440.037 949.321 440.037 949.321 440.037Z" fill="#806ECC"/>
<path d="M878.446 396.543C878.446 396.543 942.043 417.093 949.32 440.035C949.32 440.035 949.013 450.297 955.37 462.088V466.621C955.37 466.621 948.706 451.215 945.082 449.101C945.054 449.101 959.301 429.162 878.446 396.543Z" fill="#806ECC"/>
<path d="M955.37 462.088C955.37 462.088 965.184 476.938 959.58 495.041L957.043 494.374C957.043 494.374 959.496 474.463 954.366 464.424C949.236 454.385 955.37 462.088 955.37 462.088Z" fill="#806ECC"/>
<path d="M950.072 534.251C925.509 534.251 905.574 514.368 905.574 489.869H994.57C994.57 514.368 974.635 534.251 950.072 534.251Z" fill="#806ECC"/>
<path d="M904.961 536.504H995.184C995.184 533.473 992.73 531.026 989.691 531.026H910.454C907.414 531.026 904.961 533.473 904.961 536.504Z" fill="#806ECC"/>
<path d="M904.548 491.219H996.026V489.857H904.548V491.219Z" fill="#6B52CA"/>
<path d="M1070.71 266.037H1006.04C1003.06 266.037 1000.62 263.598 1000.62 260.621V198.181C1000.62 195.204 1003.06 192.766 1006.04 192.766H1070.71C1073.69 192.766 1076.13 195.204 1076.13 198.181V260.621C1076.13 263.598 1073.69 266.037 1070.71 266.037Z" fill="#B7AEE3"/>
<path d="M1067.92 262.845H1008.83C1006.11 262.845 1003.89 260.621 1003.89 257.895V200.871C1003.89 198.145 1006.11 195.922 1008.83 195.922H1067.92C1070.64 195.922 1072.86 198.145 1072.86 200.871V257.931C1072.83 260.621 1070.61 262.845 1067.92 262.845Z" fill="#A396D8"/>
<path d="M1036.8 202.628C1036.8 201.768 1037.52 201.05 1038.38 201.05C1039.24 201.05 1039.95 201.768 1039.95 202.628C1039.95 203.489 1039.24 204.206 1038.38 204.206C1037.52 204.206 1036.8 203.489 1036.8 202.628Z" fill="#462CA9"/>
<path d="M1049.42 204.852C1049.85 204.099 1050.78 203.812 1051.53 204.242C1052.29 204.673 1052.57 205.605 1052.14 206.358C1051.71 207.111 1050.78 207.398 1050.03 206.968C1049.27 206.538 1048.99 205.605 1049.42 204.852Z" fill="#462CA9"/>
<path d="M1060.24 213.423C1060.96 212.957 1061.93 213.172 1062.4 213.89C1062.86 214.607 1062.65 215.575 1061.93 216.042C1061.21 216.508 1060.24 216.293 1059.78 215.575C1059.31 214.858 1059.49 213.89 1060.24 213.423Z" fill="#462CA9"/>
<path d="M1065.59 226.729C1066.45 226.729 1067.16 227.447 1067.16 228.307C1067.16 229.168 1066.45 229.885 1065.59 229.885C1064.73 229.885 1064.01 229.168 1064.01 228.307C1064.01 227.411 1064.73 226.729 1065.59 226.729Z" fill="#462CA9"/>
<path d="M1062.86 242.151C1063.47 242.761 1063.47 243.765 1062.86 244.374C1062.25 244.984 1061.25 244.984 1060.64 244.374C1060.03 243.765 1060.03 242.761 1060.64 242.151C1061.25 241.541 1062.25 241.541 1062.86 242.151Z" fill="#462CA9"/>
<path d="M1053.04 252.014C1053.65 252.623 1053.65 253.628 1053.04 254.237C1052.43 254.847 1051.42 254.847 1050.82 254.237C1050.21 253.628 1050.21 252.623 1050.82 252.014C1051.42 251.404 1052.43 251.404 1053.04 252.014Z" fill="#462CA9"/>
<path d="M1036.8 257.07C1036.8 256.21 1037.51 255.492 1038.38 255.492C1039.24 255.492 1039.95 256.21 1039.95 257.07C1039.95 257.931 1039.24 258.648 1038.38 258.648C1037.51 258.648 1036.8 257.931 1036.8 257.07Z" fill="#462CA9"/>
<path d="M1027.26 204.852C1026.83 204.099 1025.9 203.812 1025.15 204.242C1024.39 204.673 1024.11 205.605 1024.54 206.358C1024.97 207.111 1025.9 207.398 1026.65 206.968C1027.4 206.538 1027.69 205.605 1027.26 204.852Z" fill="#462CA9"/>
<path d="M1016.47 213.423C1015.75 212.957 1014.78 213.172 1014.32 213.89C1013.85 214.607 1014.07 215.575 1014.78 216.042C1015.5 216.508 1016.47 216.293 1016.94 215.575C1017.4 214.858 1017.19 213.89 1016.47 213.423Z" fill="#462CA9"/>
<path d="M1011.09 226.729C1010.23 226.729 1009.51 227.447 1009.51 228.307C1009.51 229.168 1010.23 229.885 1011.09 229.885C1011.95 229.885 1012.67 229.168 1012.67 228.307C1012.67 227.411 1011.95 226.729 1011.09 226.729Z" fill="#462CA9"/>
<path d="M1013.82 242.151C1013.21 242.761 1013.21 243.765 1013.82 244.374C1014.43 244.984 1015.43 244.984 1016.04 244.374C1016.65 243.765 1016.65 242.761 1016.04 242.151C1015.43 241.541 1014.43 241.541 1013.82 242.151Z" fill="#462CA9"/>
<path d="M1023.64 252.014C1023.03 252.623 1023.03 253.628 1023.64 254.237C1024.25 254.847 1025.25 254.847 1025.86 254.237C1026.47 253.628 1026.47 252.623 1025.86 252.014C1025.25 251.404 1024.25 251.404 1023.64 252.014Z" fill="#462CA9"/>
<path d="M1037.95 228.271C1037.95 227.411 1038.66 226.693 1039.52 226.693C1040.38 226.693 1041.1 227.411 1041.1 228.271C1041.1 229.132 1040.38 229.849 1039.52 229.849C1038.66 229.849 1037.95 229.168 1037.95 228.271Z" fill="#462CA9"/>
<path d="M1039.74 208.761H1039.31V228.307H1039.74V208.761Z" fill="#462CA9"/>
<path d="M1049.26 219.616L1038.91 227.744L1039.71 228.759L1050.06 220.632L1049.26 219.616Z" fill="#462CA9"/>
<path d="M1286.8 542.599C1313.59 542.599 1335.3 521.976 1335.3 496.536C1335.3 471.096 1313.59 450.473 1286.8 450.473C1260.02 450.473 1238.3 471.096 1238.3 496.536C1238.3 521.976 1260.02 542.599 1286.8 542.599Z" fill="#282144"/>
<path d="M1446.43 493.338C1446.43 493.338 1446.43 501.731 1446.43 505.928C1446.43 510.125 1443.97 511.424 1440.92 511.424H1437.91C1431.3 529.559 1412.96 542.599 1391.42 542.599C1364.26 542.599 1342.27 521.965 1342.27 496.536C1342.27 471.106 1365.21 439.032 1392.32 439.032C1418.32 439.032 1442.77 448.224 1444.53 472.155L1446.43 493.338Z" fill="#282144"/>
<path d="M1211.2 489.791V518.368C1211.2 523.214 1206.89 522.515 1203.53 522.515H1196.67C1187.95 534.705 1173.22 542.649 1156.58 542.649C1133.79 542.649 1114.65 527.661 1109.49 507.527C1108.58 504.03 1108.08 500.333 1108.08 496.586C1108.08 479.599 1117.75 464.761 1132.13 456.768C1135.44 452.171 1138.2 448.524 1138.8 448.374C1140.4 448.025 1159.69 441.43 1160.34 440.681C1160.94 439.881 1171.92 439.082 1171.92 439.082L1196.21 448.574L1209.39 472.305C1209.39 472.305 1211.2 484.046 1211.2 489.791Z" fill="#282144"/>
<path d="M1091 489.791V518.368C1091 523.214 1086.79 522.515 1083.53 522.515H1076.82C1068.3 534.705 1053.97 542.649 1037.69 542.649C1015.44 542.649 996.755 527.661 991.695 507.527C990.793 504.03 990.342 500.333 990.342 496.586C990.342 479.599 999.761 464.761 1013.84 456.768C1017.05 452.171 1019.75 448.524 1020.3 448.374C1021.86 448.025 1040.7 441.43 1041.3 440.681C1041.9 439.881 1052.57 439.082 1052.57 439.082L1076.27 448.574L1089.14 472.305C1089.25 472.305 1091 484.046 1091 489.791Z" fill="#282144"/>
<path d="M967.094 481.548V483.496L967.996 488.042L968.096 488.492C968.096 488.492 969.449 494.587 969.198 495.936V495.986C968.897 497.485 965.741 505.179 965.891 506.028C965.992 506.927 966.893 507.477 966.893 507.477H981.974H1071.76H1076.02C1076.02 507.477 1108.73 507.477 1119.11 507.477C1129.48 507.477 1127.77 499.483 1127.77 496.835C1127.77 494.188 1130.43 442.879 1168.86 442.879C1207.29 442.879 1211.6 486.843 1211.6 496.486C1211.6 506.128 1211.6 507.477 1211.6 507.477C1211.6 507.477 1345.87 507.477 1353.39 507.477C1360.9 507.477 1363.26 499.333 1363.26 484.845C1363.26 470.357 1378.79 443.278 1404.94 443.278C1431.1 443.278 1442.77 471.156 1444.42 478.001C1446.08 484.845 1446.43 493.338 1446.43 493.338C1446.43 493.338 1450.44 488.192 1452.44 487.193C1454.45 486.194 1459.46 486.044 1460.61 484.845C1461.76 483.696 1466.47 471.006 1467.47 463.712C1467.82 461.214 1468.07 458.666 1468.12 456.318C1468.27 451.672 1467.72 447.725 1465.97 446.076C1464.57 444.727 1463.86 444.128 1463.56 443.828C1463.31 443.578 1463.31 443.578 1463.31 443.578C1463.31 443.578 1461.81 432.487 1460.31 426.742C1458.8 420.996 1456.65 415.101 1456.65 415.101C1456.65 415.101 1458.8 412.453 1459.06 410.205C1459.16 409.455 1459.16 408.806 1459.11 408.356C1459 407.457 1458.8 407.057 1458.8 407.057L1450.14 392.419L1433.2 385.325L1417.67 365.141L1413.41 359.595C1413.41 359.595 1413.86 351.902 1413.96 348.005C1413.96 347.805 1413.96 347.605 1413.96 347.455C1413.76 344.008 1410.56 342.859 1399.03 341.81C1386.86 340.661 1301.93 329.42 1227.53 335.415C1202.93 337.413 1183.24 341.16 1167.1 345.657C1166.95 345.707 1166.8 345.707 1166.7 345.757C1166.4 345.856 1166.15 345.906 1165.85 346.006C1165.85 346.006 1165.8 346.006 1165.75 346.006C1133.94 355.099 1116.35 367.04 1102.82 373.784C1082.33 383.976 1072.96 391.32 1072.96 391.32C1072.96 391.32 1066.5 392.619 1057.38 394.517C1048.26 396.466 1036.54 399.064 1025.96 401.712C1006.88 406.508 992.095 414.102 985.682 418.998L988.638 423.644L988.488 431.937L986.935 437.583L979.469 445.127H971.202C971.152 445.627 971.102 445.876 971.102 445.876C971.102 445.876 968.597 452.571 967.495 457.717C967.394 458.216 967.294 458.716 967.194 459.166C966.342 464.411 965.891 472.555 965.891 472.555L966.994 473.454V474.104L967.094 481.548Z" fill="#F6F6FA"/>
<path d="M1101.62 440.88L1101.37 440.481L1119.81 428.84C1120.71 428.241 1121.16 427.241 1121.11 426.192V425.942H1121.36V426.192H1121.61C1121.71 427.441 1121.16 428.59 1120.11 429.29L1101.62 440.88Z" fill="#F0575C"/>
<path d="M1191.86 395.167L1191.66 394.717C1191.71 394.667 1199.02 391.62 1212.15 379.929C1218.16 374.583 1223.82 369.288 1229.03 364.142L1229.38 364.492C1224.17 369.637 1218.46 374.983 1212.5 380.329C1199.27 392.069 1191.91 395.117 1191.86 395.167Z" fill="#F0575C"/>
<path d="M1191.71 395.167C1191.61 395.167 1178.83 393.069 1144.11 390.021C1132.83 389.022 1120.91 388.472 1108.58 388.422V387.923C1120.91 387.973 1132.88 388.522 1144.16 389.522C1178.88 392.619 1191.66 394.667 1191.76 394.667L1191.71 395.167Z" fill="#F0575C"/>
<path d="M1191.76 395.167H1191.71C1191.61 395.167 1179.98 393.269 1148.92 390.421L1148.97 389.921C1178.78 392.669 1190.7 394.468 1191.71 394.667C1192.31 394.418 1196.92 392.319 1204.93 385.974L1205.23 386.374C1196.62 393.169 1191.86 395.167 1191.81 395.167H1191.76Z" fill="#F0575C"/>
<path d="M1328.29 389.871V389.621C1328.29 389.571 1327.58 382.127 1323.93 366.69L1324.43 366.59C1327.69 380.529 1328.59 387.973 1328.74 389.372C1331.64 389.222 1360.75 387.873 1375.08 385.375C1383.35 383.926 1388.36 381.628 1389.96 378.63C1390.71 377.231 1390.66 375.733 1389.91 374.084C1389.11 372.285 1385.7 368.488 1380.19 364.242L1380.49 363.842C1386.06 368.139 1389.51 372.035 1390.36 373.884C1391.17 375.683 1391.22 377.381 1390.41 378.88C1388.76 382.027 1383.6 384.426 1375.18 385.874C1360.15 388.522 1328.89 389.871 1328.54 389.871H1328.29Z" fill="#F0575C"/>
<path d="M1230.03 397.715C1227.03 397.715 1224.77 396.866 1223.47 395.167C1222.07 393.368 1221.87 390.721 1222.92 387.523C1224.42 382.777 1229.93 375.982 1235.3 369.388C1237.1 367.139 1239 364.841 1240.66 362.643L1241.06 362.943C1239.4 365.141 1237.5 367.439 1235.7 369.687C1230.38 376.232 1224.87 383.027 1223.42 387.673C1222.47 390.721 1222.62 393.219 1223.92 394.867C1225.22 396.516 1227.63 397.315 1230.89 397.165C1233.84 397.016 1238.35 396.516 1244.61 395.866C1252.88 394.967 1264.25 393.718 1279.34 392.519C1303.39 390.571 1314.71 389.821 1316.51 389.721C1316.31 387.723 1315.06 374.683 1313.36 364.192C1313.05 362.393 1312.75 360.595 1312.4 358.896L1312.9 358.796C1313.26 360.545 1313.61 362.343 1313.91 364.142C1315.71 375.533 1317.06 389.821 1317.06 389.971V390.221H1316.81C1316.71 390.221 1305.64 390.92 1279.39 393.069C1264.3 394.318 1252.98 395.517 1244.66 396.416C1238.4 397.115 1233.89 397.565 1230.94 397.715C1230.59 397.665 1230.28 397.715 1230.03 397.715Z" fill="#F0575C"/>
<path d="M1230.03 397.715C1227.03 397.715 1224.77 396.865 1223.47 395.167C1222.07 393.368 1221.87 390.72 1222.92 387.523C1223.57 385.425 1225.12 382.677 1227.63 379.18L1228.03 379.479C1225.58 382.927 1224.07 385.575 1223.42 387.673C1222.47 390.72 1222.62 393.218 1223.92 394.867C1225.22 396.516 1227.63 397.315 1230.89 397.165C1233.84 397.015 1238.35 396.516 1244.61 395.866C1246.77 395.616 1249.17 395.367 1251.78 395.117L1251.83 395.616C1249.22 395.916 1246.82 396.166 1244.66 396.366C1238.4 397.065 1233.89 397.515 1230.89 397.665C1230.59 397.665 1230.28 397.715 1230.03 397.715Z" fill="#F0575C"/>
<path d="M1230.03 397.715C1227.03 397.715 1224.77 396.865 1223.47 395.167C1222.07 393.368 1221.87 390.72 1222.92 387.523C1223.07 387.023 1223.27 386.524 1223.52 385.974L1223.97 386.174C1223.72 386.674 1223.57 387.173 1223.37 387.673C1222.42 390.72 1222.57 393.218 1223.87 394.867C1225.17 396.516 1227.58 397.315 1230.84 397.165C1233.79 397.015 1238.3 396.516 1244.56 395.866C1246.72 395.616 1249.07 395.367 1251.68 395.117C1253.68 394.417 1255.09 393.718 1255.89 393.069C1258.79 390.67 1259.24 387.673 1259.14 385.525L1259.65 385.475C1259.8 387.723 1259.29 390.87 1256.19 393.418C1255.34 394.118 1253.88 394.817 1251.78 395.567H1251.73C1249.12 395.866 1246.72 396.116 1244.56 396.316C1238.3 397.015 1233.79 397.465 1230.79 397.615C1230.59 397.665 1230.28 397.715 1230.03 397.715Z" fill="#F0575C"/>
<path d="M1328.54 389.871V389.372C1328.84 389.372 1360.1 388.023 1375.08 385.375C1382.95 383.976 1387.86 381.878 1389.71 379.08L1390.11 379.38C1388.16 382.277 1383.15 384.476 1375.18 385.874C1360.15 388.472 1328.84 389.821 1328.54 389.871Z" fill="#F0575C"/>
<path d="M1248.67 395.916L1248.62 395.417C1249.62 395.317 1250.63 395.217 1251.68 395.067C1261.25 394.068 1270.02 393.218 1279.24 392.469C1303.28 390.521 1314.61 389.771 1316.41 389.671C1316.36 389.072 1316.21 387.373 1315.96 385.025L1316.46 384.975C1316.76 387.973 1316.96 389.871 1316.96 389.871V390.121H1316.71C1316.61 390.121 1305.54 390.82 1279.29 392.969C1270.07 393.718 1261.3 394.517 1251.78 395.567C1250.68 395.716 1249.67 395.816 1248.67 395.916Z" fill="#F0575C"/>
<path d="M1405.9 386.174C1390.97 390.521 1326.63 393.618 1282.64 398.514C1238.65 403.41 1196.87 409.206 1165.75 420.646C1134.64 432.087 1127.32 446.526 1124.17 454.519C1121.01 462.513 1120.91 475.452 1119.36 478.5C1116.6 483.696 1080.43 479.799 1074.11 480.199C1067.8 480.648 1064.69 475.153 1058.23 467.359C1051.87 459.565 1050.72 453.57 1045.61 453.57H989.54C985.031 453.57 983.277 464.461 981.574 470.656C979.92 476.851 979.519 482.197 976.613 485.145C975.311 486.444 971.252 484.345 967.094 481.598L966.994 474.104V473.454L965.891 472.555C965.891 472.555 966.342 464.461 967.244 459.216C967.344 458.766 967.445 458.266 967.545 457.767L975.261 453.82C975.261 453.82 982.977 444.577 984.179 443.378C985.381 442.179 987.937 441.979 994.851 441.979H1054.97C1060.99 441.979 1063.29 446.726 1067.5 449.623C1071.71 452.521 1073.26 454.969 1075.82 454.969C1078.37 454.969 1098.36 455.768 1101.52 455.918C1104.68 456.068 1112.64 445.676 1118.35 440.78C1124.07 435.884 1131.18 428.34 1132.53 425.692C1133.89 423.045 1132.38 421.446 1129.78 418.798C1127.17 416.15 1124.27 414.601 1124.27 414.601C1124.27 414.601 1155.43 403.26 1182.84 399.513C1210.24 395.766 1307.99 384.575 1307.99 384.575C1327.74 383.726 1333.15 349.553 1333.15 349.553L1345.42 345.407L1413.96 347.555C1413.96 347.755 1413.96 347.955 1413.96 348.105C1413.86 352.001 1413.41 359.695 1413.41 359.695L1417.67 365.241C1416.52 365.79 1415.72 366.19 1415.72 366.19C1415.72 366.19 1419.07 370.387 1419.72 372.385C1420.38 374.384 1420.83 381.828 1405.9 386.174Z" fill="#E5E2F1"/>
<path d="M1381.8 387.623C1366.41 388.472 1341.86 391.27 1290.96 395.167C1240 399.064 1238.25 400.263 1231.14 400.513C1224.02 400.713 1216.66 400.313 1207.54 399.164C1198.42 398.065 1157.64 391.17 1123.57 390.071C1089.5 388.972 1073.01 391.42 1073.01 391.42C1073.01 391.42 1073.91 390.721 1075.82 389.422C1079.98 386.574 1088.79 380.928 1102.87 373.884C1115.65 367.489 1132.13 356.448 1160.84 347.555C1162.45 347.056 1164.1 346.556 1165.8 346.056C1165.85 346.056 1165.85 346.056 1165.9 346.056C1166.15 346.006 1166.45 345.906 1166.75 345.807C1166.85 345.757 1167 345.757 1167.16 345.707C1176.98 343.209 1239.8 340.361 1276.48 340.861C1313.71 341.36 1350.78 344.208 1369.82 350.503C1388.86 356.848 1401.89 369.637 1404.24 375.133C1406.55 380.629 1397.18 386.774 1381.8 387.623Z" fill="#3E3465"/>
<path d="M1248.52 343.309C1248.52 343.309 1242.56 351.053 1229.18 364.292C1224.47 368.938 1218.86 374.234 1212.3 380.129C1199.02 391.97 1191.76 394.968 1191.76 394.968C1191.76 394.968 1179.28 392.919 1144.16 389.822C1131.68 388.723 1119.41 388.273 1108.64 388.223C1093.45 388.123 1081.23 388.772 1075.82 389.422C1079.98 386.574 1088.79 380.929 1102.87 373.884C1115.65 367.49 1132.13 356.448 1160.84 347.556C1169.26 346.606 1180.28 345.457 1192.96 344.508C1222.32 342.26 1248.52 343.309 1248.52 343.309Z" fill="#B9CAD2"/>
<path d="M1229.18 364.292C1224.47 368.938 1218.86 374.234 1212.3 380.129C1209.64 382.477 1207.29 384.475 1205.13 386.174C1196.42 393.069 1191.81 394.917 1191.81 394.917C1191.81 394.917 1180.43 393.069 1149.02 390.171C1147.46 390.021 1145.86 389.871 1144.21 389.721C1131.73 388.622 1119.46 388.172 1108.68 388.123C1108.68 388.123 1135.89 368.738 1167.16 364.242C1198.27 359.795 1229.18 364.292 1229.18 364.292Z" fill="#748A97"/>
<path d="M1205.08 386.174C1196.37 393.068 1191.76 394.917 1191.76 394.917C1191.76 394.917 1180.38 393.068 1148.97 390.171C1148.97 390.171 1173.92 386.574 1186.24 386.224C1193.26 386.074 1200.32 386.124 1205.08 386.174Z" fill="#95A3AC"/>
<path d="M1316.66 389.921C1316.66 389.921 1305.79 390.571 1279.24 392.769C1252.68 394.967 1237.65 397.115 1230.79 397.415C1223.92 397.765 1221.12 393.918 1223.12 387.573C1225.12 381.228 1234.29 371.236 1240.81 362.743C1247.32 354.25 1259.85 343.009 1259.85 343.009L1308.6 344.608C1308.6 344.608 1310.7 350.203 1312.45 358.746C1312.8 360.395 1313.11 362.193 1313.46 364.092C1315.36 375.633 1316.66 389.921 1316.66 389.921Z" fill="#B9CAD2"/>
<path d="M1316.66 389.921C1316.66 389.921 1305.79 390.571 1279.24 392.769C1268.11 393.668 1259.04 394.568 1251.68 395.367C1253.43 394.767 1255.09 394.068 1255.99 393.269C1258.79 390.97 1259.5 388.023 1259.34 385.525C1256.54 385.525 1252.73 385.525 1247.97 385.575C1238.6 385.725 1227.33 385.974 1223.67 386.074C1224.57 384.076 1225.98 381.778 1227.73 379.33C1231.49 374.084 1236.65 368.139 1240.76 362.743C1240.76 362.743 1259.8 358.896 1294.72 358.596C1300.48 358.546 1306.44 358.596 1312.45 358.746C1312.8 360.395 1313.11 362.193 1313.46 364.092C1314.61 371.386 1315.61 379.829 1316.11 385.025C1316.51 388.023 1316.66 389.921 1316.66 389.921Z" fill="#748A97"/>
<path d="M1316.16 385.025C1316.46 388.023 1316.66 389.921 1316.66 389.921C1316.66 389.921 1305.79 390.571 1279.24 392.769C1268.11 393.668 1259.04 394.567 1251.68 395.367C1253.43 394.767 1255.09 394.068 1255.99 393.269C1258.79 390.97 1259.5 388.023 1259.34 385.525C1259.39 385.525 1288.76 385.625 1316.16 385.025Z" fill="#95A3AC"/>
<path d="M1375.13 385.625C1359.95 388.273 1328.54 389.622 1328.54 389.622C1328.54 389.622 1327.89 382.277 1324.18 366.64C1323.53 363.842 1322.88 361.344 1322.22 359.146C1319.27 349.054 1316.66 345.007 1316.66 345.007C1316.66 345.007 1337.2 345.657 1355.89 351.352C1365.76 354.35 1374.28 359.396 1380.34 364.042C1385.75 368.189 1389.26 372.086 1390.11 373.984C1392.02 377.931 1390.31 382.927 1375.13 385.625Z" fill="#B9CAD2"/>
<path d="M1389.91 379.23C1388.26 381.728 1384 384.076 1375.13 385.625C1359.95 388.273 1328.54 389.622 1328.54 389.622C1328.54 389.622 1328.39 388.023 1327.89 384.725C1327.28 380.978 1326.18 374.983 1324.23 366.64C1323.58 363.842 1322.93 361.344 1322.27 359.146C1345.12 360.095 1367.52 362.144 1380.44 364.042C1385.85 368.189 1389.36 372.086 1390.21 373.984C1390.92 375.583 1391.07 377.431 1389.91 379.23Z" fill="#748A97"/>
<path d="M1389.91 379.23C1388.26 381.728 1384 384.076 1375.13 385.625C1359.95 388.272 1328.54 389.621 1328.54 389.621C1328.54 389.621 1328.39 388.023 1327.89 384.725C1334.55 384.525 1340.81 384.276 1346.17 383.926C1367.82 382.627 1383.35 380.329 1389.91 379.23Z" fill="#95A3AC"/>
<path d="M1256.04 393.268C1255.09 394.018 1253.48 394.717 1251.73 395.367C1241.56 396.466 1234.79 397.265 1230.84 397.465C1223.97 397.815 1221.17 393.968 1223.17 387.623C1223.32 387.123 1223.52 386.624 1223.77 386.124C1224.67 384.126 1226.08 381.828 1227.83 379.38C1229.03 379.08 1230.09 378.78 1230.84 378.63C1233.74 378.031 1244.72 376.982 1252.03 378.031C1259.4 379.13 1259.14 381.628 1259.4 385.425C1259.4 385.475 1259.4 385.475 1259.4 385.525C1259.55 388.023 1258.84 390.97 1256.04 393.268Z" fill="#F7F6F1"/>
<path d="M1256.04 393.268C1255.09 394.018 1253.48 394.717 1251.73 395.367C1250.68 395.467 1249.62 395.567 1248.67 395.716C1240.21 396.616 1234.39 397.315 1230.84 397.465C1223.97 397.815 1221.17 393.968 1223.17 387.623C1223.22 387.523 1223.27 387.373 1223.32 387.273C1223.37 387.123 1223.42 387.023 1223.47 386.874C1223.52 386.724 1223.57 386.624 1223.62 386.474C1223.67 386.324 1223.72 386.224 1223.77 386.074C1227.43 385.974 1238.7 385.724 1248.07 385.575C1252.78 385.525 1256.59 385.475 1259.44 385.525C1259.55 388.023 1258.84 390.97 1256.04 393.268Z" fill="#DAD9D4"/>
<path d="M976.564 482.947C976.364 484.945 976.213 487.593 975.362 487.943C974.811 488.143 970.903 488.093 968.047 488.043L967.145 483.496L967.045 474.054L968.247 473.404C968.247 473.404 975.462 475.852 975.813 476.602C976.163 477.401 976.815 480.948 976.564 482.947Z" fill="#282144"/>
<path d="M972.455 486.644H965.892C965.29 486.644 964.789 486.144 964.789 485.544V484.745C964.789 484.146 965.29 483.646 965.892 483.646H972.455C973.056 483.646 973.557 484.146 973.557 484.745V485.544C973.557 486.144 973.056 486.644 972.455 486.644Z" fill="#FE851D"/>
<path d="M1067.45 476.552L1095.71 472.355C1095.71 472.355 1100.92 476.452 1102.17 481.448C1103.37 486.444 1101.82 487.992 1101.82 487.992H1073.56C1073.56 487.992 1070.36 485.794 1068.75 482.996C1067.2 480.199 1067.45 476.552 1067.45 476.552Z" fill="#282144"/>
<path d="M1098.16 486.644H1075.27C1074.66 486.644 1074.16 486.144 1074.16 485.544V484.745C1074.16 484.146 1074.66 483.646 1075.27 483.646H1098.16C1098.76 483.646 1099.27 484.146 1099.27 484.745V485.544C1099.27 486.144 1098.76 486.644 1098.16 486.644Z" fill="#FE851D"/>
<path d="M1040.8 465.611C1038.69 465.76 983.578 505.928 983.578 505.928L981.975 507.527H966.894C966.894 507.527 965.992 506.977 965.891 506.078C965.791 505.179 968.948 497.485 969.198 496.036H973.557C975.01 496.036 977.365 493.039 978.868 489.791C980.371 486.544 986.384 461.564 987.536 458.666C988.688 455.768 990.893 455.918 998.158 455.918H1038.64C1041.9 455.918 1045.2 459.515 1046.51 461.264C1047.81 462.963 1042.85 465.461 1040.8 465.611Z" fill="#E5E2F1"/>
<path d="M1468.12 456.318C1468.07 458.666 1467.82 461.214 1467.47 463.712C1466.47 471.056 1461.81 483.696 1460.61 484.845C1459.46 485.994 1454.45 486.194 1452.44 487.193C1450.44 488.192 1446.43 493.338 1446.43 493.338C1446.43 493.338 1446.08 484.845 1444.43 478C1442.77 471.156 1431.05 443.278 1404.94 443.278C1378.79 443.278 1363.26 470.357 1363.26 484.845C1363.26 499.333 1360.9 507.477 1353.39 507.477C1345.87 507.477 1211.6 507.477 1211.6 507.477C1211.6 507.477 1211.6 506.128 1211.6 496.486C1211.6 486.843 1207.24 442.879 1168.86 442.879C1130.43 442.879 1127.77 494.187 1127.77 496.835C1127.77 499.483 1129.43 507.477 1119.11 507.477C1108.74 507.477 1076.02 507.477 1076.02 507.477H1071.76L1066.55 496.386C1066.55 496.386 1107.28 496.386 1114.45 496.386C1121.56 496.386 1120.56 485.594 1125.27 469.607C1129.93 453.62 1148.12 433.386 1169.71 433.386C1191.3 433.386 1204.78 449.074 1210.54 459.965C1216.31 470.856 1218.06 480.948 1218.36 486.394C1218.71 491.839 1220.26 496.386 1225.58 496.386H1345.37C1352.49 496.386 1353.29 495.387 1354.59 491.739C1355.94 488.092 1356.39 477.001 1361.5 464.561C1366.62 452.121 1381.2 433.686 1405.6 433.686C1430 433.686 1442.22 456.218 1444.02 458.866C1445.83 461.514 1447.38 462.763 1450.39 462.763C1453.39 462.763 1459.66 462.113 1462.76 460.764C1464.82 459.865 1466.52 458.366 1468.12 456.318Z" fill="#E5E2F1"/>
<path d="M1043.4 461.214H998.058C995.102 461.214 992.546 463.213 991.845 466.06L981.574 507.527H1077.42L1048.71 464.062C1047.56 462.263 1045.56 461.214 1043.4 461.214Z" fill="#282144"/>
<path d="M1067 513.622H995.753C993.298 513.622 991.093 512.073 990.292 509.725L989.54 507.527H1073.21L1072.36 509.875C1071.56 512.123 1069.4 513.622 1067 513.622Z" fill="#636E8E"/>
<path d="M1046.26 468.408H1000.81C998.358 468.408 996.154 470.107 995.603 472.505L986.935 507.527H1075.02L1050.77 470.856C1049.76 469.308 1048.06 468.408 1046.26 468.408Z" fill="#636E8E"/>
<path d="M1043.75 488.842H999.46C995.653 488.842 992.396 491.49 991.594 495.187L989.039 507.527H1059.38L1050.57 492.789C1049.16 490.341 1046.56 488.842 1043.75 488.842Z" fill="#F7F6F1"/>
<path d="M1463.56 443.828C1459.76 445.626 1455.4 447.475 1452.79 447.875C1447.43 448.724 1446.43 447.025 1442.12 440.031C1437.76 433.036 1429.44 423.544 1399.18 423.544C1368.97 423.544 1357.45 458.666 1356.49 467.009C1355.54 475.353 1353.09 479.849 1348.73 479.849H1222.52C1218.06 479.849 1218.81 470.007 1218.31 464.361C1217.81 458.716 1215.3 453.37 1207.44 441.03C1199.57 428.69 1190.4 429.04 1193.76 425.393C1197.12 421.746 1220.46 419.048 1276.93 413.752C1326.43 409.056 1410.81 405.808 1437.31 405.209C1441.02 405.109 1443.62 405.109 1444.78 405.109L1459.11 408.306C1459.16 408.806 1459.16 409.405 1459.06 410.155C1458.8 412.403 1456.65 415.051 1456.65 415.051C1456.65 415.051 1458.8 420.946 1460.31 426.692C1461.81 432.437 1463.31 443.528 1463.31 443.528C1463.31 443.528 1463.31 443.578 1463.56 443.828Z" fill="#E5E2F1"/>
<path d="M1454.8 400.763L1449.94 392.569L1433.95 385.874L1434.15 385.425L1450.29 392.169L1455.25 400.513L1454.8 400.763Z" fill="#F0575C"/>
<path d="M1459.06 410.155C1458.8 412.403 1456.65 415.051 1456.65 415.051L1448.78 415.351C1448.78 415.351 1442.87 409.905 1437.31 405.159C1436.76 404.659 1436.16 404.21 1435.61 403.71C1429.59 398.714 1426.94 396.716 1428.09 393.718C1429.24 390.72 1433.2 385.225 1433.2 385.225L1434.1 385.575L1450.19 392.269L1455.1 400.563L1458.85 406.907C1458.85 406.907 1459.06 407.307 1459.16 408.206C1459.16 408.806 1459.16 409.405 1459.06 410.155Z" fill="#F15A23"/>
<path d="M1455.05 400.663L1437.26 401.512C1437.26 401.512 1432.85 398.514 1431.1 396.616C1429.34 394.717 1430.6 393.019 1431.1 391.22C1431.6 389.372 1434.05 385.675 1434.05 385.675L1450.14 392.369L1455.05 400.663Z" fill="#F8B173"/>
<path d="M1227.53 493.188C1227.28 493.188 1227.03 493.038 1226.88 492.839C1226.63 492.439 1220.51 482.497 1220.51 466.859C1220.51 461.913 1220.57 455.519 1220.62 448.724C1220.72 434.535 1220.87 418.398 1220.51 412.653C1220.06 404.659 1215.55 401.362 1215.5 401.312C1215.15 401.062 1215.1 400.612 1215.3 400.263C1215.55 399.913 1216.01 399.863 1216.36 400.063C1216.56 400.213 1221.52 403.81 1222.02 412.553C1222.37 418.398 1222.22 434.485 1222.12 448.724C1222.07 455.469 1222.02 461.863 1222.02 466.809C1222.02 482.047 1228.08 491.939 1228.13 492.039C1228.33 492.389 1228.23 492.839 1227.88 493.088C1227.83 493.138 1227.68 493.188 1227.53 493.188Z" fill="#B1B3AE"/>
<path d="M1325.38 494.038C1324.98 494.038 1324.68 493.738 1324.63 493.338C1324.63 493.189 1323.48 476.352 1325.23 458.466L1325.43 456.218C1327.08 439.282 1328.69 423.295 1327.08 410.355C1325.53 397.565 1321.92 395.667 1321.87 395.617C1321.52 395.417 1321.32 395.017 1321.52 394.618C1321.67 394.268 1322.12 394.068 1322.47 394.218C1322.93 394.418 1326.88 396.466 1328.59 410.155C1330.19 423.295 1328.59 439.332 1326.93 456.368L1326.73 458.616C1324.98 476.402 1326.13 493.089 1326.13 493.238C1326.18 493.638 1325.83 493.988 1325.43 494.038C1325.38 494.038 1325.38 494.038 1325.38 494.038Z" fill="#B1B3AE"/>
<path d="M1392.32 424.943C1392.12 424.943 1391.92 424.843 1391.77 424.693C1391.47 424.394 1391.52 423.944 1391.77 423.644C1391.92 423.494 1406.75 409.306 1407.8 400.413C1408.85 391.72 1402.79 387.623 1402.49 387.473C1402.14 387.223 1402.04 386.774 1402.29 386.424C1402.54 386.074 1402.99 385.974 1403.34 386.224C1403.64 386.424 1410.46 390.97 1409.3 400.613C1408.15 410.055 1393.42 424.144 1392.82 424.743C1392.67 424.893 1392.52 424.943 1392.32 424.943Z" fill="#B1B3AE"/>
<path d="M1127.62 427.941L1101.72 445.577H1076.67L1063.19 437.583H986.934L979.469 445.127H971.202C971.302 444.427 971.453 443.278 971.703 441.929C972.054 439.981 972.655 437.633 973.457 435.335C974.96 431.138 977.716 426.941 981.573 422.895C982.325 422.095 983.077 421.346 983.928 420.597C984.429 420.147 985.031 419.647 985.682 419.098L989.54 421.796H1073.21L1116.65 412.553C1118 412.253 1119.36 412.653 1120.36 413.552L1128.12 420.547C1130.43 422.595 1130.18 426.242 1127.62 427.941Z" fill="#3E3465"/>
<path d="M1064.64 428.59H990.993C990.392 428.59 989.891 428.091 989.891 427.491V426.692C989.891 426.092 990.392 425.593 990.993 425.593H1064.64C1065.25 425.593 1065.75 426.092 1065.75 426.692V427.491C1065.75 428.091 1065.25 428.59 1064.64 428.59Z" fill="#677290"/>
<path d="M1061.44 433.486H991.494C990.893 433.486 990.392 432.987 990.392 432.387V431.588C990.392 430.988 990.893 430.489 991.494 430.489H1061.44C1062.04 430.489 1062.54 430.988 1062.54 431.588V432.387C1062.54 432.987 1062.04 433.486 1061.44 433.486Z" fill="#677290"/>
<path d="M1119.91 429.04L1101.47 440.68L1099.47 441.929H1076.42L1068.75 437.383C1067.45 436.634 1067.05 434.935 1067.85 433.686L1073.21 425.293L1111.09 417.699C1111.99 417.499 1112.94 417.749 1113.6 418.348L1120.26 423.894C1120.91 424.493 1121.26 425.243 1121.31 426.042C1121.41 427.241 1120.91 428.34 1119.91 429.04Z" fill="#B9CAD2"/>
<path d="M1119.91 429.04L1101.47 440.68H1080.88L1071.46 435.585C1071.46 435.585 1072.46 434.336 1086.14 431.138C1099.67 427.941 1120.76 426.192 1121.31 426.142C1121.41 427.241 1120.91 428.34 1119.91 429.04Z" fill="#748A97"/>
<path d="M986.935 425.992C986.935 425.992 985.933 434.436 985.482 435.335C985.031 436.234 979.269 441.93 979.269 441.93H971.753C972.104 439.981 972.705 437.633 973.507 435.335C975.01 431.138 977.766 426.942 981.624 422.895H983.628L986.935 425.992Z" fill="#B9CAD2"/>
<path d="M976.413 433.386C976.413 433.386 974.81 436.334 974.459 438.082C974.108 439.881 973.557 440.63 973.557 440.63H978.668L984.029 434.285C984.379 433.386 984.029 433.436 984.029 433.436L976.413 433.386Z" fill="#748A97"/>
<path d="M1171.71 452.371C1153.43 452.371 1138.65 470.457 1138.65 492.739C1138.65 515.021 1153.48 533.106 1171.71 533.106C1190 533.106 1204.78 515.021 1204.78 492.739C1204.83 470.457 1190 452.371 1171.71 452.371ZM1171.41 522.815C1158.29 522.815 1147.62 509.425 1147.62 492.939C1147.62 476.452 1158.29 463.063 1171.41 463.063C1184.54 463.063 1195.21 476.452 1195.21 492.939C1195.21 509.425 1184.54 522.815 1171.41 522.815Z" fill="#9A95B1"/>
<path d="M958.075 537.253H1434.25C1435.76 537.253 1436.96 538.452 1436.96 539.951C1436.96 541.45 1435.76 542.649 1434.25 542.649H958.075C956.572 542.649 955.37 541.45 955.37 539.951C955.37 538.452 956.572 537.253 958.075 537.253Z" fill="#282144"/>
<path d="M1447.98 537.253H1477.09C1478.6 537.253 1479.8 538.452 1479.8 539.951C1479.8 541.45 1478.6 542.649 1477.09 542.649H1447.98C1446.48 542.649 1445.28 541.45 1445.28 539.951C1445.28 538.452 1446.48 537.253 1447.98 537.253Z" fill="#282144"/>
<path d="M1449.69 554.689H1027.62C1026.12 554.689 1024.91 553.49 1024.91 551.991C1024.91 550.492 1026.12 549.293 1027.62 549.293H1449.69C1451.19 549.293 1452.39 550.492 1452.39 551.991C1452.39 553.49 1451.19 554.689 1449.69 554.689Z" fill="#282144"/>
<path d="M1014.84 554.689H989.64C988.137 554.689 986.935 553.49 986.935 551.991C986.935 550.492 988.137 549.293 989.64 549.293H1014.89C1016.4 549.293 1017.6 550.492 1017.6 551.991C1017.55 553.49 1016.35 554.689 1014.84 554.689Z" fill="#282144"/>
<path d="M1171.86 525.912C1169.26 525.912 1166.7 525.413 1164.2 524.513C1163.85 524.363 1163.65 524.064 1163.75 523.714C1163.95 522.565 1164.3 521.366 1164.85 520.117C1166.95 515.271 1168.36 511.274 1168.26 507.577C1168.26 507.077 1168.21 506.578 1168.21 506.128C1166.35 505.828 1164.65 504.979 1163.2 503.58C1162.75 504.23 1162.35 504.979 1161.89 505.828C1160.04 509.475 1158.24 512.773 1154.78 515.571C1154.48 515.82 1154.23 515.97 1153.93 516.12C1153.63 516.27 1153.23 516.17 1153.03 515.92C1150.37 512.523 1148.32 508.326 1147.06 503.83C1146.96 503.53 1147.11 503.18 1147.41 502.981C1149.07 501.981 1150.82 501.082 1152.63 500.433C1155.08 499.483 1157.64 498.184 1159.54 497.135C1159.19 495.736 1158.99 494.338 1158.99 492.839C1158.99 491.84 1159.09 490.84 1159.24 489.891C1158.19 489.591 1156.68 489.192 1154.63 488.792C1151.22 488.043 1148.42 487.593 1146.66 487.293C1146.26 487.243 1145.96 486.844 1146.06 486.444C1147.01 480.199 1149.32 474.453 1152.83 469.807C1152.93 469.657 1153.13 469.557 1153.33 469.507C1153.53 469.457 1153.73 469.557 1153.88 469.657C1157.54 472.755 1159.64 475.952 1160.99 478.101C1161.19 478.35 1161.34 478.6 1161.49 478.85C1162.2 479.899 1162.9 480.998 1163.45 481.848C1164.8 480.649 1166.3 479.899 1167.91 479.599C1167.96 478.001 1167.86 475.603 1167.26 472.505C1166.5 468.658 1164.95 464.561 1163.8 461.814C1163.7 461.614 1163.7 461.414 1163.8 461.214C1163.9 461.014 1164.05 460.864 1164.2 460.814C1169.21 458.916 1174.67 458.916 1179.68 460.864C1179.98 460.964 1180.18 461.314 1180.13 461.614C1180.13 461.814 1180.13 461.963 1180.08 462.163C1179.88 466.21 1178.13 474.104 1176.52 478.051C1176.07 479.2 1175.57 480.349 1175.12 481.448C1176.22 482.347 1177.23 483.446 1177.98 484.795C1179.33 483.546 1182.39 480.649 1184.54 477.801C1185.54 476.452 1186.34 475.353 1187 474.354C1188.3 472.455 1189.2 471.206 1190.35 470.207C1190.5 470.057 1190.7 470.007 1190.95 470.007C1191.15 470.007 1191.36 470.157 1191.46 470.307C1194.16 474.054 1196.16 478.65 1197.27 483.496C1197.37 483.846 1197.17 484.196 1196.87 484.346L1195.81 484.845C1192.16 486.594 1188.35 488.342 1184.64 489.591C1182.74 490.241 1181.18 490.491 1180.03 490.641C1180.13 491.34 1180.18 492.089 1180.18 492.789C1180.18 493.089 1180.18 493.338 1180.18 493.588C1181.53 493.738 1183.69 494.138 1186.8 495.137C1191.05 496.486 1194.81 498.384 1197.22 499.783C1197.52 499.933 1197.67 500.283 1197.57 500.583C1196.57 505.778 1194.51 510.674 1191.71 514.721C1191.56 514.921 1191.36 515.021 1191.15 515.021C1190.95 515.021 1190.7 514.971 1190.55 514.821C1189.7 513.922 1188.7 512.623 1187.65 510.974C1186.9 509.775 1186.19 508.676 1185.64 507.727C1183.69 504.579 1182.54 502.631 1180.53 501.482C1179.73 501.032 1179.03 500.633 1178.43 500.283C1177.88 501.332 1177.23 502.281 1176.42 503.081C1177.23 504.38 1178.18 506.378 1178.68 509.276L1178.83 510.125C1179.68 515.321 1180.43 519.767 1180.28 523.764C1180.28 524.064 1180.08 524.314 1179.78 524.413C1177.13 525.413 1174.52 525.912 1171.86 525.912ZM1165.35 523.314C1169.66 524.813 1174.32 524.763 1178.63 523.214C1178.68 519.517 1177.98 515.271 1177.18 510.375L1177.03 509.525C1176.52 506.478 1175.47 504.529 1174.67 503.43C1174.47 503.13 1174.52 502.731 1174.77 502.431C1175.77 501.482 1176.62 500.283 1177.23 498.934C1177.33 498.734 1177.48 498.584 1177.68 498.534C1177.88 498.484 1178.08 498.484 1178.28 498.584C1179.03 499.034 1179.98 499.583 1181.08 500.183C1183.44 501.532 1184.69 503.58 1186.75 506.927C1187.35 507.877 1188 508.926 1188.75 510.125C1189.5 511.324 1190.2 512.273 1190.85 513.023C1193.21 509.475 1194.91 505.229 1195.86 500.782C1193.51 499.483 1190.05 497.785 1186.19 496.536C1182.59 495.387 1180.38 495.037 1179.18 494.987C1178.98 494.987 1178.78 494.887 1178.68 494.737C1178.58 494.587 1178.48 494.388 1178.53 494.188C1178.58 493.738 1178.58 493.288 1178.58 492.789C1178.58 491.89 1178.48 490.94 1178.33 490.091C1178.28 489.891 1178.33 489.641 1178.48 489.491C1178.63 489.342 1178.83 489.242 1179.03 489.192C1180.13 489.092 1181.89 488.892 1184.09 488.143C1187.7 486.943 1191.46 485.195 1195.06 483.446L1195.61 483.196C1194.61 479.05 1192.91 475.153 1190.7 471.856C1189.95 472.655 1189.2 473.704 1188.25 475.103C1187.55 476.102 1186.75 477.251 1185.74 478.6C1182.84 482.497 1178.48 486.294 1178.28 486.444C1178.08 486.594 1177.88 486.644 1177.63 486.594C1177.38 486.544 1177.23 486.394 1177.13 486.194C1176.27 484.545 1175.12 483.147 1173.77 482.197C1173.47 481.997 1173.37 481.598 1173.52 481.298C1174.07 480.049 1174.62 478.75 1175.17 477.401C1176.72 473.654 1178.43 465.86 1178.63 462.013V461.963C1174.37 460.415 1169.76 460.415 1165.5 461.864C1166.65 464.661 1168.06 468.458 1168.76 472.105C1169.46 475.752 1169.51 478.5 1169.41 480.149C1169.41 480.499 1169.11 480.798 1168.76 480.848C1166.95 481.048 1165.3 481.947 1163.9 483.396C1163.75 483.546 1163.5 483.646 1163.3 483.646C1163.05 483.646 1162.85 483.496 1162.75 483.296C1162.25 482.497 1161.24 480.898 1160.34 479.549C1160.19 479.3 1159.99 479.05 1159.84 478.8C1158.49 476.752 1156.68 474.004 1153.63 471.206C1150.67 475.353 1148.67 480.349 1147.72 485.794C1149.47 486.094 1152.02 486.544 1155.03 487.193C1157.59 487.743 1159.39 488.192 1160.44 488.592C1160.79 488.742 1160.99 489.092 1160.94 489.441C1160.69 490.491 1160.59 491.64 1160.59 492.739C1160.59 494.288 1160.79 495.736 1161.24 497.185C1161.34 497.535 1161.19 497.885 1160.89 498.035C1158.94 499.134 1156.03 500.632 1153.28 501.732C1151.72 502.331 1150.27 503.031 1148.82 503.88C1149.97 507.727 1151.72 511.324 1153.93 514.372C1153.93 514.372 1153.93 514.372 1153.98 514.322C1157.18 511.674 1158.89 508.576 1160.69 505.029C1161.34 503.73 1161.99 502.631 1162.65 501.832C1162.8 501.682 1163 501.582 1163.2 501.532C1163.4 501.532 1163.65 501.632 1163.8 501.782C1165.3 503.43 1167.11 504.429 1169.11 504.579C1169.51 504.629 1169.76 504.929 1169.81 505.279C1169.86 505.928 1169.91 506.628 1169.91 507.377C1170.01 511.374 1168.61 515.521 1166.4 520.567C1165.8 521.566 1165.5 522.465 1165.35 523.314Z" fill="#FEFEFC"/>
<path d="M1168.41 499.933C1171.67 499.933 1174.32 496.801 1174.32 492.938C1174.32 489.076 1171.67 485.944 1168.41 485.944C1165.14 485.944 1162.5 489.076 1162.5 492.938C1162.5 496.801 1165.14 499.933 1168.41 499.933Z" fill="#FEFEFC"/>
<path d="M1406.2 452.371C1387.91 452.371 1373.13 470.457 1373.13 492.739C1373.13 515.021 1387.96 533.106 1406.2 533.106C1424.48 533.106 1439.26 515.021 1439.26 492.739C1439.31 470.457 1424.48 452.371 1406.2 452.371ZM1405.9 522.815C1392.77 522.815 1382.1 509.425 1382.1 492.939C1382.1 476.452 1392.77 463.063 1405.9 463.063C1419.02 463.063 1429.7 476.452 1429.7 492.939C1429.7 509.425 1419.02 522.815 1405.9 522.815Z" fill="#9A95B1"/>
<path d="M1406.35 525.912C1403.74 525.912 1401.19 525.413 1398.68 524.513C1398.33 524.363 1398.13 524.064 1398.23 523.714C1398.43 522.565 1398.78 521.366 1399.33 520.117C1401.44 515.271 1402.84 511.274 1402.74 507.577C1402.74 507.077 1402.69 506.578 1402.69 506.128C1400.84 505.828 1399.13 504.979 1397.68 503.58C1397.23 504.23 1396.83 504.979 1396.38 505.828C1394.52 509.475 1392.72 512.773 1389.26 515.571C1388.96 515.82 1388.71 515.97 1388.41 516.12C1388.11 516.27 1387.71 516.17 1387.51 515.92C1384.85 512.523 1382.8 508.326 1381.55 503.83C1381.45 503.53 1381.6 503.18 1381.9 502.981C1383.55 501.981 1385.3 501.082 1387.11 500.433C1389.56 499.483 1392.12 498.184 1394.02 497.135C1393.67 495.736 1393.47 494.338 1393.47 492.839C1393.47 491.84 1393.57 490.84 1393.72 489.891C1392.67 489.591 1391.17 489.192 1389.11 488.792C1385.7 488.043 1382.9 487.593 1381.14 487.293C1380.74 487.243 1380.44 486.844 1380.54 486.444C1381.5 480.199 1383.8 474.453 1387.31 469.807C1387.41 469.657 1387.61 469.557 1387.81 469.507C1388.01 469.507 1388.21 469.557 1388.36 469.657C1392.02 472.755 1394.12 475.952 1395.47 478.101C1395.67 478.35 1395.83 478.6 1395.98 478.85C1396.68 479.849 1397.38 480.998 1397.93 481.848C1399.28 480.649 1400.79 479.899 1402.39 479.599C1402.44 478.001 1402.34 475.603 1401.74 472.505C1400.99 468.658 1399.43 464.561 1398.28 461.814C1398.18 461.614 1398.18 461.414 1398.28 461.214C1398.38 461.014 1398.53 460.864 1398.68 460.814C1403.69 458.916 1409.15 458.916 1414.16 460.864C1414.46 460.964 1414.66 461.314 1414.61 461.614C1414.61 461.814 1414.61 461.963 1414.56 462.163C1414.36 466.21 1412.61 474.104 1411.01 478.051C1410.56 479.2 1410.05 480.349 1409.6 481.448C1410.71 482.347 1411.71 483.446 1412.46 484.795C1413.81 483.546 1416.87 480.649 1419.02 477.801C1420.02 476.452 1420.83 475.353 1421.48 474.354C1422.78 472.455 1423.68 471.206 1424.83 470.207C1424.99 470.057 1425.19 470.007 1425.44 470.007C1425.69 470.007 1425.84 470.157 1425.94 470.307C1428.64 474.054 1430.65 478.65 1431.75 483.496C1431.85 483.846 1431.65 484.196 1431.35 484.346L1430.3 484.845C1426.64 486.594 1422.83 488.342 1419.12 489.591C1417.22 490.241 1415.67 490.491 1414.51 490.641C1414.61 491.34 1414.66 492.089 1414.66 492.789C1414.66 493.089 1414.66 493.338 1414.66 493.588C1416.02 493.738 1418.17 494.138 1421.28 495.137C1425.54 496.486 1429.29 498.384 1431.7 499.783C1432 499.933 1432.15 500.283 1432.05 500.583C1431.05 505.778 1428.99 510.674 1426.19 514.721C1426.04 514.921 1425.84 515.021 1425.64 515.021C1425.44 515.021 1425.19 514.971 1425.04 514.821C1424.18 513.922 1423.18 512.673 1422.13 510.974C1421.38 509.775 1420.68 508.676 1420.13 507.727C1418.17 504.579 1417.02 502.631 1415.01 501.482C1414.21 501.032 1413.51 500.633 1412.91 500.283C1412.36 501.332 1411.71 502.281 1410.91 503.081C1411.71 504.38 1412.66 506.378 1413.16 509.276L1413.31 510.125C1414.16 515.321 1414.91 519.767 1414.76 523.764C1414.76 524.064 1414.56 524.314 1414.26 524.413C1411.61 525.413 1409 525.912 1406.35 525.912ZM1399.83 523.314C1404.14 524.813 1408.8 524.763 1413.11 523.214C1413.16 519.517 1412.46 515.271 1411.66 510.375L1411.51 509.525C1411.01 506.478 1409.95 504.529 1409.15 503.43C1408.95 503.13 1409 502.731 1409.25 502.431C1410.25 501.482 1411.11 500.283 1411.71 498.934C1411.81 498.734 1411.96 498.584 1412.16 498.534C1412.36 498.484 1412.56 498.484 1412.76 498.584C1413.51 499.034 1414.46 499.583 1415.57 500.183C1417.92 501.532 1419.17 503.58 1421.23 506.927C1421.83 507.877 1422.48 508.926 1423.23 510.125C1423.98 511.324 1424.68 512.273 1425.34 513.023C1427.69 509.475 1429.39 505.229 1430.35 500.782C1427.99 499.483 1424.53 497.785 1420.68 496.536C1417.07 495.387 1414.86 495.037 1413.66 494.987C1413.46 494.987 1413.26 494.887 1413.16 494.737C1413.01 494.587 1412.96 494.388 1413.01 494.188C1413.06 493.738 1413.06 493.288 1413.06 492.789C1413.06 491.89 1412.96 490.94 1412.81 490.091C1412.76 489.891 1412.81 489.641 1412.96 489.491C1413.11 489.342 1413.31 489.242 1413.51 489.192C1414.61 489.092 1416.37 488.892 1418.57 488.143C1422.18 486.943 1425.94 485.195 1429.54 483.446L1430.05 483.196C1429.04 479.05 1427.34 475.153 1425.14 471.856C1424.38 472.655 1423.63 473.704 1422.68 475.103C1421.98 476.102 1421.18 477.251 1420.18 478.6C1417.27 482.497 1412.91 486.294 1412.71 486.444C1412.51 486.594 1412.31 486.644 1412.06 486.594C1411.81 486.544 1411.66 486.394 1411.56 486.194C1410.71 484.545 1409.55 483.147 1408.2 482.197C1407.9 481.997 1407.8 481.598 1407.95 481.298C1408.45 480.099 1409.05 478.75 1409.6 477.401C1411.16 473.654 1412.86 465.86 1413.06 462.013V461.963C1408.8 460.415 1404.19 460.415 1399.93 461.864C1401.09 464.661 1402.49 468.458 1403.19 472.105C1403.89 475.752 1403.94 478.5 1403.84 480.149C1403.84 480.499 1403.54 480.798 1403.19 480.848C1401.39 481.048 1399.73 481.947 1398.33 483.396C1398.18 483.546 1397.93 483.646 1397.73 483.646C1397.48 483.646 1397.28 483.496 1397.18 483.296C1396.68 482.497 1395.67 480.898 1394.77 479.549C1394.62 479.3 1394.42 479.05 1394.27 478.8C1392.92 476.752 1391.12 474.004 1388.01 471.206C1385.05 475.353 1383.05 480.349 1382.1 485.794C1383.85 486.094 1386.41 486.544 1389.41 487.193C1391.97 487.743 1393.77 488.192 1394.82 488.592C1395.17 488.742 1395.37 489.092 1395.32 489.441C1395.07 490.491 1394.97 491.64 1394.97 492.739C1394.97 494.288 1395.17 495.736 1395.62 497.185C1395.72 497.535 1395.57 497.885 1395.27 498.035C1393.32 499.134 1390.41 500.632 1387.66 501.732C1386.11 502.331 1384.6 503.031 1383.2 503.88C1384.35 507.727 1386.11 511.324 1388.36 514.372C1388.36 514.372 1388.36 514.372 1388.41 514.322C1391.62 511.674 1393.32 508.576 1395.12 505.029C1395.78 503.73 1396.43 502.631 1397.13 501.832C1397.28 501.682 1397.48 501.582 1397.68 501.532C1397.93 501.532 1398.13 501.632 1398.28 501.782C1399.78 503.43 1401.59 504.429 1403.59 504.579C1403.99 504.629 1404.24 504.929 1404.29 505.279C1404.34 505.928 1404.39 506.628 1404.39 507.377C1404.49 511.374 1403.09 515.521 1400.89 520.567C1400.28 521.566 1399.98 522.465 1399.83 523.314Z" fill="#FEFEFC"/>
<path d="M1402.89 499.933C1406.16 499.933 1408.8 496.801 1408.8 492.938C1408.8 489.076 1406.16 485.944 1402.89 485.944C1399.62 485.944 1396.98 489.076 1396.98 492.938C1396.98 496.801 1399.62 499.933 1402.89 499.933Z" fill="#FEFEFC"/>
<path d="M1189.15 570.45C1189.15 570.45 1192.24 576.155 1194.22 578.452C1196.2 580.75 1203.88 584.791 1203.96 591.526C1204.04 598.816 1191.05 596.835 1185.98 596.518C1180.91 596.28 1180.52 592.318 1178.38 588.198C1176.24 584.078 1174.1 584.791 1173.7 581.384C1173.31 578.056 1175.76 570.371 1175.76 570.371H1189.15V570.45Z" fill="#282144"/>
<path d="M1111.92 569.737C1111.92 569.737 1105.66 576.709 1099.32 578.215C1092.98 579.641 1088.55 581.543 1088.47 585.583C1088.39 589.624 1106.77 592.239 1113.97 588.198C1124.83 582.176 1125.94 583.999 1127.12 580.988C1128.31 577.977 1125.7 569.895 1125.78 568.944C1125.94 567.677 1111.92 569.737 1111.92 569.737Z" fill="#282144"/>
<path d="M1112.63 566.409C1112.63 566.409 1111.84 569.657 1111.92 569.737C1112.07 569.816 1126.25 571.48 1125.78 568.865C1125.46 566.726 1124.91 564.428 1124.91 564.428L1112.63 566.409Z" fill="#81807E"/>
<path d="M1175.92 568.231C1175.92 568.231 1175.37 571.321 1175.45 571.4C1175.52 571.48 1189.78 574.015 1189.7 571.4C1189.63 569.34 1188.36 566.963 1188.36 566.963L1175.92 568.231Z" fill="#81807E"/>
<path d="M1125.54 370.701C1125.54 370.701 1120.39 420.777 1117.7 437.891C1114.53 457.937 1113.5 474.497 1112.63 484.877C1111.52 497.951 1111.28 562.13 1110.57 565.934C1109.78 569.737 1127.68 566.964 1127.68 566.964C1127.68 566.964 1136.47 483.055 1139.72 469.189C1142.73 456.274 1154.06 400.572 1156.91 404.058C1159.68 407.624 1163.17 469.109 1165.23 479.251C1167.29 489.473 1173.54 569.341 1173.54 569.341C1173.54 569.341 1187.72 572.193 1191.53 568.944C1191.53 568.944 1193.27 500.09 1191.92 480.915C1191.45 473.626 1200.48 393.441 1188.83 361.193C1182.65 344.316 1125.54 370.701 1125.54 370.701Z" fill="#2D1686"/>
<path d="M1173.7 353.586C1173.7 353.586 1170.3 348.357 1166.65 347.723C1163.01 347.089 1214.97 326.964 1214.82 317.693C1214.74 310.166 1195.96 295.666 1195.96 295.666L1195.41 297.647C1195.88 295.587 1191.53 295.27 1195.41 297.647C1195.01 299.152 1189.47 319.832 1189.23 329.737C1188.99 340.037 1189.86 375.455 1189.86 375.455L1176.08 379.179L1132.04 379.575L1121.9 375.534C1121.9 375.534 1123.01 364.124 1123.4 356.122C1123.64 351.051 1124.67 341.939 1124.35 333.065C1124.35 333.065 1124.51 323.715 1123.56 319.674C1123.48 301.926 1122.37 284.256 1122.37 284.256C1121.74 276.174 1121.34 268.647 1121.1 261.595C1123.08 260.565 1125.38 259.377 1127.28 258.505C1133.07 255.732 1141.15 252.008 1146.29 249.631C1149.3 248.205 1152.31 247.254 1152.31 247.254C1152.31 247.254 1172.99 245.273 1174.65 245.352C1175.21 245.352 1177.74 246.303 1181.15 247.571C1188.52 250.344 1202.62 256.049 1204.91 257.634C1208.24 260.011 1229.87 317.218 1230.18 321.179C1230.82 328.31 1173.7 353.586 1173.7 353.586Z" fill="#E8E5F1"/>
<path d="M1123.24 371.81C1123.24 371.81 1153.5 374.425 1180.04 371.81V380.526C1180.04 380.526 1140.59 384.329 1121.9 378.862L1123.24 371.81Z" fill="#1D2033"/>
<path d="M1120.71 261.595C1120.95 268.726 1121.26 276.412 1121.9 284.652C1121.9 284.652 1122.45 304.699 1123.64 323.715C1124.04 326.409 1124.19 329.261 1124.04 332.034C1123.72 335.758 1123.32 339.799 1122.85 344.078C1122.85 344.157 1122.85 344.157 1122.85 344.237C1122.77 345.267 1122.61 346.217 1122.45 347.247C1122.45 347.247 1122.45 347.247 1122.45 347.327C1119.92 368.482 1115.56 392.807 1113.26 400.176C1112.79 401.681 1114.45 403.107 1115.64 404.217L1123.96 409.446C1123.96 409.446 1127.36 377.99 1128.47 367.373C1129.58 357.072 1132.99 343.286 1134.49 329.816C1136.39 312.781 1139.01 296.062 1140.43 286.079C1144.16 260.248 1149.07 248.68 1149.07 248.68C1146.69 249.314 1120.71 261.595 1120.71 261.595Z" fill="#4E33B5"/>
<path d="M1208.56 315.078C1212.12 322.923 1176.95 333.778 1177.82 335.758C1179.8 340.433 1183.29 351.764 1183.29 351.764C1183.29 351.764 1234.62 329.341 1234.07 323.953C1233.67 319.991 1211.17 260.645 1207.84 258.268C1205.94 256.921 1191.84 251.85 1184.95 249.076C1183.68 248.601 1179.33 247.016 1178.22 246.62C1176.71 248.284 1166.57 259.456 1163.01 301.688C1162.38 308.819 1164.28 323.873 1165.54 336.234C1166.89 349.387 1168.4 359.608 1169.5 370.621C1171.64 392.252 1173.23 409.525 1173.23 409.525L1194.77 399.938C1198.26 398.195 1204.28 393.679 1203.01 389.955C1198.02 376.009 1190.58 349.545 1190.58 337.343C1190.58 337.343 1194.06 303.589 1195.96 297.013C1195.88 296.855 1204.6 306.283 1208.56 315.078Z" fill="#4E33B5"/>
<path d="M1173.12 243.029C1172.99 250.284 1158.29 254.321 1158.29 254.321C1158.29 254.321 1152.18 246.94 1153.63 246.246C1154.19 245.994 1154.45 244.859 1154.51 243.597C1154.57 242.398 1154.51 241.137 1154.45 240.316C1154.38 239.812 1154.38 239.496 1154.38 239.496C1154.38 239.496 1156.46 237.352 1159.11 234.828C1163.78 230.412 1170.15 224.735 1170.15 227.006C1170.15 227.132 1170.15 227.258 1170.09 227.447C1169.02 232.431 1173.12 243.029 1173.12 243.029Z" fill="#FFAE73"/>
<path d="M1167.5 232.368C1167.5 232.431 1166.87 233.314 1165.8 234.576C1163.53 237.288 1159.3 241.767 1154.57 243.597C1154.64 242.398 1154.57 241.137 1154.51 240.316C1154 240.316 1153.56 240.253 1153.06 240.127C1154.38 237.919 1156.28 235.648 1156.28 235.648L1159.24 234.828L1167.5 232.368Z" fill="#D79573"/>
<path d="M1158.41 255.098L1154.61 260.248C1154.61 260.248 1156.83 263.259 1160.79 261.041L1158.41 255.098Z" fill="#E34208"/>
<path d="M1155.64 260.407C1155.64 260.407 1141.15 316.267 1144.16 359.687L1149.07 368.245L1153.66 359.212C1153.66 359.212 1154.93 281.483 1158.89 260.249L1155.64 260.407Z" fill="#E34208"/>
<path d="M1154.37 250.265L1158.49 255.019C1158.49 255.019 1165.07 253.751 1166.97 250.344C1168.87 246.937 1154.37 250.265 1154.37 250.265Z" fill="#FFAE73"/>
<path d="M1153.42 246.145C1153.42 246.145 1153.9 249.79 1158.49 255.098L1153.5 261.754L1150.81 247.888L1153.42 246.145Z" fill="#D2CCE7"/>
<path d="M1173.31 242.025C1173.31 242.025 1165.15 252.404 1158.49 255.098L1161.58 262.705L1175.68 245.669L1173.31 242.025Z" fill="#D2CCE7"/>
<path d="M1094.41 327.518C1094.41 327.518 1088.63 327.122 1096.86 325.062C1100.67 324.111 1105.74 318.882 1110.49 312.622C1112.07 310.562 1113.58 308.423 1115.08 306.283C1120.95 297.805 1125.54 289.644 1125.54 289.644C1125.54 289.644 1142.89 269.281 1128.95 260.248C1128.95 260.248 1123.01 260.09 1119.68 261.912C1116.35 263.735 1109.14 278.71 1107.95 281.404C1106.77 284.019 1093.54 308.66 1092.67 309.215C1091.79 309.77 1090.92 312.543 1090.92 312.543L1091.32 314.207L1094.41 327.518Z" fill="#4E33B5"/>
<path d="M1145.49 382.984L1159.67 382.984L1159.67 372.209L1145.49 372.209L1145.49 382.984Z" fill="#3A4066"/>
<path d="M1171.54 225.91C1170.16 228.808 1168.85 230.947 1168.44 231.775C1168.16 232.327 1167.54 233.224 1166.57 234.19C1163.95 236.951 1159.05 240.539 1154.22 240.401C1153.67 240.401 1153.19 240.332 1152.64 240.194C1150.71 239.78 1148.36 238.883 1147.12 236.536C1137.11 217.699 1144.36 202.311 1144.36 202.311C1144.36 202.311 1171.68 194.859 1175.96 202.794C1178.99 208.315 1174.85 219.079 1171.54 225.91Z" fill="#FFAE73"/>
<path d="M1144.36 202.312C1144.36 202.312 1141.81 202.174 1141.18 197.55C1140.56 192.996 1141.81 191.685 1141.81 191.685C1141.81 191.685 1153.12 187.131 1157.12 186.579C1161.19 185.958 1171.13 185.406 1173.47 187.959C1173.47 187.959 1179.13 186.717 1180.72 195.756C1183.2 210.178 1172.37 224.116 1172.37 224.116C1172.37 224.116 1172.44 214.732 1170.3 213.49C1168.16 212.248 1166.3 215.215 1166.3 215.215L1161.88 215.974C1161.88 215.974 1168.57 202.036 1160.57 201.553C1152.57 201.001 1148.98 203.071 1144.36 202.312Z" fill="#232729"/>
<path d="M1166.44 211.42C1166.85 207.28 1174.65 205.693 1174.09 210.04C1173.54 214.387 1169.75 218.527 1167.95 218.389C1166.23 218.251 1166.16 214.594 1166.44 211.42Z" fill="#FFAE73"/>
<path d="M1094.57 345.742H1103.36C1105.02 346.772 1102.88 347.961 1102.88 347.961C1102.88 347.961 1090.29 348.753 1089.58 347.961C1088.86 347.168 1089.58 343.92 1089.58 343.92C1088.39 341.305 1087.28 338.611 1086.41 335.917C1085.69 333.461 1086.41 332.035 1086.8 331.48C1086.88 331.401 1086.96 331.321 1087.04 331.242" fill="#FFAE73"/>
<path d="M1159.13 332.51L1163.8 345.742L1173.7 334.728C1173.94 334.411 1174.1 334.094 1174.1 333.698C1174.1 332.827 1173.39 332.193 1172.51 332.193L1159.13 332.51Z" fill="#E34208"/>
<path d="M1071.52 301.529L1094.49 345.742H1163.8L1159.13 332.51L1145.11 298.835C1144.63 297.647 1143.44 296.854 1142.18 296.854H1074.37C1073.81 296.854 1073.34 297.013 1072.86 297.251C1071.28 297.964 1070.64 299.945 1071.52 301.529Z" fill="#F25B24"/>
<path d="M1112.15 319.199C1113.02 317.455 1115 316.584 1116.83 317.218C1118.89 317.852 1120 320.07 1119.28 322.13C1118.65 324.19 1116.43 325.3 1114.37 324.587C1112.31 323.636 1111.28 321.259 1112.15 319.199Z" fill="white"/>
<path d="M1182.65 349.387L1162.06 351.764C1162.06 351.764 1151.29 348.515 1149.78 348.119C1148.75 347.723 1147.96 346.851 1147.72 345.821H1162.45C1163.33 345.821 1164.2 345.425 1164.75 344.712L1169.27 339.562C1169.27 339.562 1166.26 338.136 1164.28 336.868C1163.17 336.313 1162.53 335.045 1162.85 333.778C1164.75 333.461 1176 337.185 1176 337.185L1178.61 337.66L1182.65 349.387Z" fill="#FFAE73"/>
<defs>
<linearGradient id="paint0_linear" x1="6.08265e-06" y1="400" x2="1920" y2="400" gradientUnits="userSpaceOnUse">
<stop stop-color="#2D1686"/>
<stop offset="1" stop-color="#4E33B5"/>
</linearGradient>
<linearGradient id="paint1_linear" x1="1221.84" y1="155" x2="1221.84" y2="593.914" gradientUnits="userSpaceOnUse">
<stop stop-color="white"/>
<stop offset="1" stop-color="white" stop-opacity="0"/>
</linearGradient>
</defs>
</svg>
